<svg xmlns="http://www.w3.org/2000/svg" xmlns:xlink="http://www.w3.org/1999/xlink" width="480" zoomAndPan="magnify" viewBox="0 0 360 44.999999" height="60" preserveAspectRatio="xMidYMid meet" version="1.0"><defs><g/></defs><g fill="#f6f4f0" fill-opacity="1"><g transform="translate(16.620181, 33.377129)"><g><path d="M 11.421875 0 C 10.234375 0 9.039062 -0.109375 7.84375 -0.328125 C 6.65625 -0.546875 5.523438 -0.898438 4.453125 -1.390625 C 3.753906 -1.710938 3.03125 -2.140625 2.28125 -2.671875 C 1.539062 -3.210938 0.921875 -3.847656 0.421875 -4.578125 C -0.0664062 -5.304688 -0.3125 -6.09375 -0.3125 -6.9375 C -0.3125 -7.894531 0.00390625 -8.695312 0.640625 -9.34375 C 1.285156 -10 2.21875 -10.328125 3.4375 -10.328125 C 2.976562 -8.960938 2.882812 -7.675781 3.15625 -6.46875 C 3.4375 -5.269531 3.984375 -4.234375 4.796875 -3.359375 C 5.722656 -2.367188 6.898438 -1.65625 8.328125 -1.21875 C 9.753906 -0.78125 11.25 -0.597656 12.8125 -0.671875 C 14.382812 -0.742188 15.875 -1.039062 17.28125 -1.5625 C 18.695312 -2.09375 19.859375 -2.789062 20.765625 -3.65625 C 21.722656 -4.625 22.304688 -5.628906 22.515625 -6.671875 C 22.734375 -7.710938 22.644531 -8.726562 22.25 -9.71875 C 21.863281 -10.707031 21.226562 -11.59375 20.34375 -12.375 C 19.457031 -13.164062 18.40625 -13.78125 17.1875 -14.21875 C 15.988281 -14.65625 14.671875 -14.992188 13.234375 -15.234375 C 11.796875 -15.484375 10.347656 -15.757812 8.890625 -16.0625 C 7.441406 -16.375 6.082031 -16.8125 4.8125 -17.375 C 3.550781 -17.945312 2.484375 -18.753906 1.609375 -19.796875 C 0.710938 -20.898438 0.191406 -22.164062 0.046875 -23.59375 C -0.0976562 -25.019531 0.144531 -26.34375 0.78125 -27.5625 C 1.300781 -28.601562 2.035156 -29.457031 2.984375 -30.125 C 3.929688 -30.800781 4.976562 -31.328125 6.125 -31.703125 C 7.269531 -32.078125 8.445312 -32.335938 9.65625 -32.484375 C 10.863281 -32.628906 11.992188 -32.703125 13.046875 -32.703125 C 14.234375 -32.703125 15.421875 -32.59375 16.609375 -32.375 C 17.804688 -32.15625 18.941406 -31.800781 20.015625 -31.3125 C 20.710938 -30.988281 21.429688 -30.550781 22.171875 -30 C 22.910156 -29.445312 23.523438 -28.8125 24.015625 -28.09375 C 24.515625 -27.382812 24.765625 -26.609375 24.765625 -25.765625 C 24.765625 -24.785156 24.441406 -23.96875 23.796875 -23.3125 C 23.160156 -22.65625 22.234375 -22.34375 21.015625 -22.375 C 21.453125 -23.59375 21.578125 -24.753906 21.390625 -25.859375 C 21.203125 -26.960938 20.773438 -27.9375 20.109375 -28.78125 C 19.378906 -29.769531 18.390625 -30.523438 17.140625 -31.046875 C 15.890625 -31.566406 14.546875 -31.878906 13.109375 -31.984375 C 11.671875 -32.085938 10.28125 -31.976562 8.9375 -31.65625 C 7.945312 -31.457031 6.976562 -31.101562 6.03125 -30.59375 C 5.09375 -30.082031 4.296875 -29.429688 3.640625 -28.640625 C 2.984375 -27.859375 2.597656 -26.914062 2.484375 -25.8125 C 2.367188 -24.59375 2.628906 -23.582031 3.265625 -22.78125 C 3.910156 -21.988281 4.757812 -21.347656 5.8125 -20.859375 C 6.875 -20.378906 7.960938 -20 9.078125 -19.71875 C 10.441406 -19.394531 11.90625 -19.109375 13.46875 -18.859375 C 15.039062 -18.609375 16.578125 -18.265625 18.078125 -17.828125 C 19.578125 -17.398438 20.878906 -16.734375 21.984375 -15.828125 C 23.054688 -14.953125 23.867188 -13.925781 24.421875 -12.75 C 24.972656 -11.570312 25.234375 -10.351562 25.203125 -9.09375 C 25.171875 -7.832031 24.847656 -6.617188 24.234375 -5.453125 C 23.628906 -4.285156 22.71875 -3.296875 21.5 -2.484375 C 20.070312 -1.523438 18.4375 -0.867188 16.59375 -0.515625 C 14.75 -0.171875 13.023438 0 11.421875 0 Z M 11.421875 0 "/></g></g></g><g fill="#f6f4f0" fill-opacity="1"><g transform="translate(43.603527, 33.377129)"><g><path d="M 25.421875 0 L 24.765625 0 C 24.734375 -1.425781 24.28125 -3.03125 23.40625 -4.8125 C 22.539062 -6.601562 21.390625 -8.5 19.953125 -10.5 C 18.515625 -12.507812 16.929688 -14.539062 15.203125 -16.59375 C 13.472656 -18.644531 11.707031 -20.628906 9.90625 -22.546875 C 8.101562 -24.460938 6.394531 -26.234375 4.78125 -27.859375 C 3.164062 -29.492188 1.789062 -30.878906 0.65625 -32.015625 C 0.6875 -28.203125 0.796875 -24.828125 0.984375 -21.890625 C 1.171875 -18.953125 1.410156 -16.273438 1.703125 -13.859375 C 1.992188 -11.453125 2.3125 -9.132812 2.65625 -6.90625 C 3.007812 -4.6875 3.332031 -2.382812 3.625 0 L 0 0 L 0 -32.703125 L 4.84375 -32.703125 C 7.019531 -30.492188 9.269531 -28.191406 11.59375 -25.796875 C 13.925781 -23.398438 16.203125 -20.921875 18.421875 -18.359375 C 20.648438 -15.796875 22.664062 -13.148438 24.46875 -10.421875 C 24.289062 -13.472656 24.046875 -16.21875 23.734375 -18.65625 C 23.429688 -21.101562 23.113281 -23.453125 22.78125 -25.703125 C 22.445312 -27.960938 22.125 -30.296875 21.8125 -32.703125 L 25.421875 -32.703125 Z M 25.421875 0 "/></g></g></g><g fill="#f6f4f0" fill-opacity="1"><g transform="translate(70.935622, 33.377129)"><g><path d="M 14.484375 -32.703125 L 29.125 0 L 25.15625 0 L 19.75 -12 C 19.75 -10.476562 19.507812 -9 19.03125 -7.5625 C 18.550781 -6.125 17.847656 -4.835938 16.921875 -3.703125 C 15.992188 -2.566406 14.84375 -1.664062 13.46875 -1 C 12.101562 -0.332031 10.535156 0 8.765625 0 C 6.847656 0 5.203125 -0.410156 3.828125 -1.234375 C 2.460938 -2.066406 1.445312 -3.203125 0.78125 -4.640625 C 0.113281 -6.078125 -0.113281 -7.710938 0.09375 -9.546875 C 0.238281 -10.890625 0.578125 -12.191406 1.109375 -13.453125 C 1.648438 -14.710938 2.28125 -15.9375 3 -17.125 C 3.726562 -18.320312 4.457031 -19.460938 5.1875 -20.546875 C 6.09375 -21.878906 6.898438 -23.15625 7.609375 -24.375 C 8.316406 -25.59375 8.914062 -26.878906 9.40625 -28.234375 C 9.90625 -29.585938 10.257812 -31.078125 10.46875 -32.703125 Z M 18.75 -14.21875 L 10.984375 -31.53125 C 10.671875 -29.726562 10.15625 -28.019531 9.4375 -26.40625 C 8.726562 -24.789062 7.910156 -23.171875 6.984375 -21.546875 C 6.335938 -20.378906 5.664062 -19.132812 4.96875 -17.8125 C 4.269531 -16.488281 3.703125 -15.132812 3.265625 -13.75 C 2.828125 -12.375 2.679688 -10.988281 2.828125 -9.59375 C 2.972656 -8.164062 3.429688 -6.90625 4.203125 -5.8125 C 4.972656 -4.726562 6 -3.9375 7.28125 -3.4375 C 8.5625 -2.945312 10.046875 -2.847656 11.734375 -3.140625 C 12.804688 -3.316406 13.859375 -3.796875 14.890625 -4.578125 C 15.921875 -5.359375 16.804688 -6.300781 17.546875 -7.40625 C 18.296875 -8.519531 18.800781 -9.671875 19.0625 -10.859375 C 19.320312 -12.046875 19.21875 -13.164062 18.75 -14.21875 Z M 18.75 -14.21875 "/></g></g></g><g fill="#f6f4f0" fill-opacity="1"><g transform="translate(100.578186, 33.377129)"><g><path d="M 0 -16.703125 L 13.515625 -16.703125 L 13.515625 -16 L 0 -16 Z M 0 -16.703125 "/></g></g></g><g fill="#f6f4f0" fill-opacity="1"><g transform="translate(116.052783, 33.377129)"><g><path d="M 11.734375 0.65625 C 10.566406 0.65625 9.382812 0.546875 8.1875 0.328125 C 7 0.109375 5.867188 -0.242188 4.796875 -0.734375 C 4.097656 -1.054688 3.378906 -1.484375 2.640625 -2.015625 C 1.898438 -2.554688 1.273438 -3.191406 0.765625 -3.921875 C 0.253906 -4.648438 0 -5.4375 0 -6.28125 C 0 -7.269531 0.316406 -8.085938 0.953125 -8.734375 C 1.597656 -9.390625 2.53125 -9.707031 3.75 -9.6875 C 3.28125 -8.3125 3.191406 -7.019531 3.484375 -5.8125 C 3.773438 -4.613281 4.328125 -3.578125 5.140625 -2.703125 C 5.984375 -1.804688 7.03125 -1.144531 8.28125 -0.71875 C 9.53125 -0.300781 10.835938 -0.078125 12.203125 -0.046875 C 13.773438 -0.015625 15.164062 -0.265625 16.375 -0.796875 C 17.582031 -1.335938 18.59375 -2.082031 19.40625 -3.03125 C 20.21875 -3.976562 20.828125 -5.039062 21.234375 -6.21875 C 21.640625 -7.394531 21.832031 -8.578125 21.8125 -9.765625 C 21.8125 -11.273438 21.460938 -12.6875 20.765625 -14 C 20.066406 -15.3125 18.992188 -16.34375 17.546875 -17.09375 C 16.109375 -17.851562 14.242188 -18.128906 11.953125 -17.921875 L 11.640625 -18.453125 L 19.890625 -28.4375 L 1.921875 -28.4375 L 1.921875 -32.046875 L 23.765625 -32.046875 L 12.6875 -18.625 C 14.144531 -18.800781 15.628906 -18.785156 17.140625 -18.578125 C 18.648438 -18.367188 20.046875 -17.921875 21.328125 -17.234375 C 22.609375 -16.554688 23.640625 -15.59375 24.421875 -14.34375 C 25.203125 -13.09375 25.59375 -11.507812 25.59375 -9.59375 C 25.59375 -7.820312 25.1875 -6.285156 24.375 -4.984375 C 23.5625 -3.691406 22.476562 -2.625 21.125 -1.78125 C 19.769531 -0.9375 18.269531 -0.320312 16.625 0.0625 C 14.988281 0.457031 13.359375 0.65625 11.734375 0.65625 Z M 11.734375 0.65625 "/></g></g></g><g fill="#f6f4f0" fill-opacity="1"><g transform="translate(143.646444, 33.377129)"><g><path d="M 0 -32.703125 L 11.640625 -32.703125 C 13.847656 -32.703125 15.832031 -32.28125 17.59375 -31.4375 C 19.351562 -30.59375 20.847656 -29.421875 22.078125 -27.921875 C 23.316406 -26.429688 24.265625 -24.695312 24.921875 -22.71875 C 25.578125 -20.738281 25.90625 -18.617188 25.90625 -16.359375 C 25.90625 -14.085938 25.578125 -11.960938 24.921875 -9.984375 C 24.265625 -8.003906 23.316406 -6.265625 22.078125 -4.765625 C 20.847656 -3.273438 19.351562 -2.109375 17.59375 -1.265625 C 15.832031 -0.421875 13.847656 0 11.640625 0 L 0 0 Z M 3.625 -32.015625 L 3.625 -0.65625 L 8.984375 -0.65625 C 11.160156 -0.65625 13.078125 -1.082031 14.734375 -1.9375 C 16.390625 -2.800781 17.773438 -3.972656 18.890625 -5.453125 C 20.015625 -6.929688 20.859375 -8.609375 21.421875 -10.484375 C 21.992188 -12.359375 22.28125 -14.316406 22.28125 -16.359375 C 22.28125 -18.390625 21.992188 -20.34375 21.421875 -22.21875 C 20.859375 -24.09375 20.015625 -25.765625 18.890625 -27.234375 C 17.773438 -28.703125 16.390625 -29.863281 14.734375 -30.71875 C 13.078125 -31.582031 11.160156 -32.015625 8.984375 -32.015625 Z M 3.625 -32.015625 "/></g></g></g><g fill="#f6f4f0" fill-opacity="1"><g transform="translate(171.501659, 33.377129)"><g><path d="M 11.421875 0 C 10.234375 0 9.039062 -0.109375 7.84375 -0.328125 C 6.65625 -0.546875 5.523438 -0.898438 4.453125 -1.390625 C 3.753906 -1.710938 3.03125 -2.140625 2.28125 -2.671875 C 1.539062 -3.210938 0.921875 -3.847656 0.421875 -4.578125 C -0.0664062 -5.304688 -0.3125 -6.09375 -0.3125 -6.9375 C -0.3125 -7.894531 0.00390625 -8.695312 0.640625 -9.34375 C 1.285156 -10 2.21875 -10.328125 3.4375 -10.328125 C 2.976562 -8.960938 2.882812 -7.675781 3.15625 -6.46875 C 3.4375 -5.269531 3.984375 -4.234375 4.796875 -3.359375 C 5.722656 -2.367188 6.898438 -1.65625 8.328125 -1.21875 C 9.753906 -0.78125 11.25 -0.597656 12.8125 -0.671875 C 14.382812 -0.742188 15.875 -1.039062 17.28125 -1.5625 C 18.695312 -2.09375 19.859375 -2.789062 20.765625 -3.65625 C 21.722656 -4.625 22.304688 -5.628906 22.515625 -6.671875 C 22.734375 -7.710938 22.644531 -8.726562 22.25 -9.71875 C 21.863281 -10.707031 21.226562 -11.59375 20.34375 -12.375 C 19.457031 -13.164062 18.40625 -13.78125 17.1875 -14.21875 C 15.988281 -14.65625 14.671875 -14.992188 13.234375 -15.234375 C 11.796875 -15.484375 10.347656 -15.757812 8.890625 -16.0625 C 7.441406 -16.375 6.082031 -16.8125 4.8125 -17.375 C 3.550781 -17.945312 2.484375 -18.753906 1.609375 -19.796875 C 0.710938 -20.898438 0.191406 -22.164062 0.046875 -23.59375 C -0.0976562 -25.019531 0.144531 -26.34375 0.78125 -27.5625 C 1.300781 -28.601562 2.035156 -29.457031 2.984375 -30.125 C 3.929688 -30.800781 4.976562 -31.328125 6.125 -31.703125 C 7.269531 -32.078125 8.445312 -32.335938 9.65625 -32.484375 C 10.863281 -32.628906 11.992188 -32.703125 13.046875 -32.703125 C 14.234375 -32.703125 15.421875 -32.59375 16.609375 -32.375 C 17.804688 -32.15625 18.941406 -31.800781 20.015625 -31.3125 C 20.710938 -30.988281 21.429688 -30.550781 22.171875 -30 C 22.910156 -29.445312 23.523438 -28.8125 24.015625 -28.09375 C 24.515625 -27.382812 24.765625 -26.609375 24.765625 -25.765625 C 24.765625 -24.785156 24.441406 -23.96875 23.796875 -23.3125 C 23.160156 -22.65625 22.234375 -22.34375 21.015625 -22.375 C 21.453125 -23.59375 21.578125 -24.753906 21.390625 -25.859375 C 21.203125 -26.960938 20.773438 -27.9375 20.109375 -28.78125 C 19.378906 -29.769531 18.390625 -30.523438 17.140625 -31.046875 C 15.890625 -31.566406 14.546875 -31.878906 13.109375 -31.984375 C 11.671875 -32.085938 10.28125 -31.976562 8.9375 -31.65625 C 7.945312 -31.457031 6.976562 -31.101562 6.03125 -30.59375 C 5.09375 -30.082031 4.296875 -29.429688 3.640625 -28.640625 C 2.984375 -27.859375 2.597656 -26.914062 2.484375 -25.8125 C 2.367188 -24.59375 2.628906 -23.582031 3.265625 -22.78125 C 3.910156 -21.988281 4.757812 -21.347656 5.8125 -20.859375 C 6.875 -20.378906 7.960938 -20 9.078125 -19.71875 C 10.441406 -19.394531 11.90625 -19.109375 13.46875 -18.859375 C 15.039062 -18.609375 16.578125 -18.265625 18.078125 -17.828125 C 19.578125 -17.398438 20.878906 -16.734375 21.984375 -15.828125 C 23.054688 -14.953125 23.867188 -13.925781 24.421875 -12.75 C 24.972656 -11.570312 25.234375 -10.351562 25.203125 -9.09375 C 25.171875 -7.832031 24.847656 -6.617188 24.234375 -5.453125 C 23.628906 -4.285156 22.71875 -3.296875 21.5 -2.484375 C 20.070312 -1.523438 18.4375 -0.867188 16.59375 -0.515625 C 14.75 -0.171875 13.023438 0 11.421875 0 Z M 11.421875 0 "/></g></g></g><g fill="#f6f4f0" fill-opacity="1"><g transform="translate(198.485006, 33.377129)"><g><path d="M 16.359375 -32.703125 C 17.546875 -32.703125 18.726562 -32.59375 19.90625 -32.375 C 21.082031 -32.15625 22.207031 -31.800781 23.28125 -31.3125 C 23.976562 -30.988281 24.695312 -30.550781 25.4375 -30 C 26.1875 -29.445312 26.8125 -28.8125 27.3125 -28.09375 C 27.820312 -27.382812 28.078125 -26.609375 28.078125 -25.765625 C 28.078125 -24.785156 27.75 -23.96875 27.09375 -23.3125 C 26.445312 -22.65625 25.515625 -22.34375 24.296875 -22.375 C 24.753906 -23.675781 24.859375 -24.910156 24.609375 -26.078125 C 24.367188 -27.242188 23.851562 -28.269531 23.0625 -29.15625 C 22.28125 -30.039062 21.304688 -30.738281 20.140625 -31.25 C 18.984375 -31.757812 17.722656 -32.015625 16.359375 -32.015625 C 14.234375 -32.015625 12.269531 -31.425781 10.46875 -30.25 C 8.664062 -29.070312 7.175781 -27.476562 6 -25.46875 C 4.820312 -23.457031 4.070312 -21.191406 3.75 -18.671875 C 4.382812 -19.503906 5.144531 -20.070312 6.03125 -20.375 C 6.925781 -20.6875 7.820312 -20.828125 8.71875 -20.796875 C 9.820312 -20.796875 10.882812 -20.597656 11.90625 -20.203125 C 12.925781 -19.816406 13.925781 -19.410156 14.90625 -18.984375 C 15.894531 -18.566406 16.898438 -18.285156 17.921875 -18.140625 C 18.703125 -18.054688 19.484375 -18.128906 20.265625 -18.359375 C 21.054688 -18.585938 21.554688 -19.15625 21.765625 -20.0625 C 22.109375 -18.75 22.054688 -17.671875 21.609375 -16.828125 C 21.160156 -15.984375 20.46875 -15.382812 19.53125 -15.03125 C 18.601562 -14.6875 17.546875 -14.601562 16.359375 -14.78125 C 15.453125 -14.925781 14.546875 -15.21875 13.640625 -15.65625 C 12.742188 -16.09375 11.875 -16.554688 11.03125 -17.046875 C 10.1875 -17.546875 9.359375 -17.96875 8.546875 -18.3125 C 7.734375 -18.664062 6.9375 -18.84375 6.15625 -18.84375 C 4.46875 -18.78125 3.625 -17.953125 3.625 -16.359375 C 3.644531 -13.359375 4.28125 -10.625 5.53125 -8.15625 C 6.78125 -5.6875 8.410156 -3.796875 10.421875 -2.484375 C 11.960938 -1.492188 13.550781 -0.914062 15.1875 -0.75 C 16.832031 -0.59375 18.445312 -0.773438 20.03125 -1.296875 C 21.625 -1.828125 23.109375 -2.609375 24.484375 -3.640625 C 25.867188 -4.671875 27.066406 -5.882812 28.078125 -7.28125 L 28.078125 -3.625 C 26.597656 -2.457031 24.847656 -1.5625 22.828125 -0.9375 C 20.804688 -0.3125 18.648438 0 16.359375 0 C 14.117188 0 12.007812 -0.421875 10.03125 -1.265625 C 8.050781 -2.109375 6.3125 -3.273438 4.8125 -4.765625 C 3.320312 -6.265625 2.144531 -8.003906 1.28125 -9.984375 C 0.425781 -11.960938 0 -14.085938 0 -16.359375 C 0 -18.617188 0.421875 -20.738281 1.265625 -22.71875 C 2.109375 -24.695312 3.273438 -26.429688 4.765625 -27.921875 C 6.265625 -29.421875 8.003906 -30.59375 9.984375 -31.4375 C 11.960938 -32.28125 14.085938 -32.703125 16.359375 -32.703125 Z M 16.359375 -32.703125 "/></g></g></g><g fill="#f6f4f0" fill-opacity="1"><g transform="translate(227.996799, 33.377129)"><g><path d="M 14.484375 -32.703125 L 29.125 0 L 25.15625 0 L 19.75 -12 C 19.75 -10.476562 19.507812 -9 19.03125 -7.5625 C 18.550781 -6.125 17.847656 -4.835938 16.921875 -3.703125 C 15.992188 -2.566406 14.84375 -1.664062 13.46875 -1 C 12.101562 -0.332031 10.535156 0 8.765625 0 C 6.847656 0 5.203125 -0.410156 3.828125 -1.234375 C 2.460938 -2.066406 1.445312 -3.203125 0.78125 -4.640625 C 0.113281 -6.078125 -0.113281 -7.710938 0.09375 -9.546875 C 0.238281 -10.890625 0.578125 -12.191406 1.109375 -13.453125 C 1.648438 -14.710938 2.28125 -15.9375 3 -17.125 C 3.726562 -18.320312 4.457031 -19.460938 5.1875 -20.546875 C 6.09375 -21.878906 6.898438 -23.15625 7.609375 -24.375 C 8.316406 -25.59375 8.914062 -26.878906 9.40625 -28.234375 C 9.90625 -29.585938 10.257812 -31.078125 10.46875 -32.703125 Z M 18.75 -14.21875 L 10.984375 -31.53125 C 10.671875 -29.726562 10.15625 -28.019531 9.4375 -26.40625 C 8.726562 -24.789062 7.910156 -23.171875 6.984375 -21.546875 C 6.335938 -20.378906 5.664062 -19.132812 4.96875 -17.8125 C 4.269531 -16.488281 3.703125 -15.132812 3.265625 -13.75 C 2.828125 -12.375 2.679688 -10.988281 2.828125 -9.59375 C 2.972656 -8.164062 3.429688 -6.90625 4.203125 -5.8125 C 4.972656 -4.726562 6 -3.9375 7.28125 -3.4375 C 8.5625 -2.945312 10.046875 -2.847656 11.734375 -3.140625 C 12.804688 -3.316406 13.859375 -3.796875 14.890625 -4.578125 C 15.921875 -5.359375 16.804688 -6.300781 17.546875 -7.40625 C 18.296875 -8.519531 18.800781 -9.671875 19.0625 -10.859375 C 19.320312 -12.046875 19.21875 -13.164062 18.75 -14.21875 Z M 18.75 -14.21875 "/></g></g></g><g fill="#f6f4f0" fill-opacity="1"><g transform="translate(257.639352, 33.377129)"><g><path d="M 0 -32.703125 L 15.78125 -32.703125 C 17.351562 -32.703125 18.816406 -32.359375 20.171875 -31.671875 C 21.523438 -30.992188 22.617188 -30.03125 23.453125 -28.78125 C 24.296875 -27.53125 24.71875 -26.019531 24.71875 -24.25 C 24.71875 -22.351562 24.253906 -20.78125 23.328125 -19.53125 C 22.398438 -18.28125 21.1875 -17.347656 19.6875 -16.734375 C 18.1875 -16.128906 16.566406 -15.828125 14.828125 -15.828125 C 15.523438 -15.503906 16.109375 -14.992188 16.578125 -14.296875 C 17.472656 -13.109375 18.273438 -11.816406 18.984375 -10.421875 C 19.703125 -9.023438 20.382812 -7.644531 21.03125 -6.28125 C 21.6875 -4.914062 22.351562 -3.679688 23.03125 -2.578125 C 23.226562 -2.253906 23.535156 -1.800781 23.953125 -1.21875 C 24.378906 -0.632812 24.769531 -0.226562 25.125 0 L 21.765625 0 C 21.148438 0 20.695312 -0.09375 20.40625 -0.28125 C 20.113281 -0.46875 19.867188 -0.738281 19.671875 -1.09375 C 18.566406 -3.125 17.554688 -5.097656 16.640625 -7.015625 C 15.722656 -8.941406 14.609375 -10.921875 13.296875 -12.953125 C 11.460938 -15.742188 9.3125 -16.117188 6.84375 -14.078125 L 6.5 -14.484375 C 7.3125 -15.179688 8.101562 -15.660156 8.875 -15.921875 C 9.644531 -16.179688 10.453125 -16.332031 11.296875 -16.375 C 12.140625 -16.414062 13.039062 -16.46875 14 -16.53125 C 16.414062 -16.675781 18.195312 -17.445312 19.34375 -18.84375 C 20.488281 -20.238281 21.0625 -22.039062 21.0625 -24.25 C 21.0625 -25.789062 20.691406 -27.140625 19.953125 -28.296875 C 19.210938 -29.460938 18.253906 -30.375 17.078125 -31.03125 C 15.898438 -31.6875 14.640625 -32.015625 13.296875 -32.015625 L 3.625 -32.015625 L 3.625 0 L 0 0 Z M 0 -32.703125 "/></g></g></g><g fill="#f6f4f0" fill-opacity="1"><g transform="translate(283.838012, 33.377129)"><g><path d="M 16.359375 -32.703125 C 17.546875 -32.703125 18.726562 -32.59375 19.90625 -32.375 C 21.082031 -32.15625 22.207031 -31.800781 23.28125 -31.3125 C 23.976562 -30.988281 24.695312 -30.550781 25.4375 -30 C 26.1875 -29.445312 26.8125 -28.8125 27.3125 -28.09375 C 27.820312 -27.382812 28.078125 -26.609375 28.078125 -25.765625 C 28.078125 -24.785156 27.75 -23.96875 27.09375 -23.3125 C 26.445312 -22.65625 25.515625 -22.34375 24.296875 -22.375 C 24.753906 -23.675781 24.859375 -24.910156 24.609375 -26.078125 C 24.367188 -27.242188 23.851562 -28.269531 23.0625 -29.15625 C 22.28125 -30.039062 21.304688 -30.738281 20.140625 -31.25 C 18.984375 -31.757812 17.722656 -32.015625 16.359375 -32.015625 C 14.609375 -32.015625 12.960938 -31.601562 11.421875 -30.78125 C 9.878906 -29.96875 8.519531 -28.84375 7.34375 -27.40625 C 6.164062 -25.96875 5.25 -24.300781 4.59375 -22.40625 C 3.945312 -20.519531 3.625 -18.503906 3.625 -16.359375 C 3.625 -14.347656 3.910156 -12.445312 4.484375 -10.65625 C 5.066406 -8.875 5.867188 -7.285156 6.890625 -5.890625 C 7.910156 -4.492188 9.085938 -3.359375 10.421875 -2.484375 C 11.960938 -1.492188 13.550781 -0.914062 15.1875 -0.75 C 16.832031 -0.59375 18.445312 -0.773438 20.03125 -1.296875 C 21.625 -1.828125 23.109375 -2.609375 24.484375 -3.640625 C 25.867188 -4.671875 27.066406 -5.882812 28.078125 -7.28125 L 28.078125 -3.625 C 26.597656 -2.457031 24.847656 -1.5625 22.828125 -0.9375 C 20.804688 -0.3125 18.648438 0 16.359375 0 C 14.117188 0 12.007812 -0.421875 10.03125 -1.265625 C 8.050781 -2.109375 6.3125 -3.273438 4.8125 -4.765625 C 3.320312 -6.265625 2.144531 -8.003906 1.28125 -9.984375 C 0.425781 -11.960938 0 -14.085938 0 -16.359375 C 0 -18.617188 0.421875 -20.738281 1.265625 -22.71875 C 2.109375 -24.695312 3.273438 -26.429688 4.765625 -27.921875 C 6.265625 -29.421875 8.003906 -30.59375 9.984375 -31.4375 C 11.960938 -32.28125 14.085938 -32.703125 16.359375 -32.703125 Z M 16.359375 -32.703125 "/></g></g></g><g fill="#f6f4f0" fill-opacity="1"><g transform="translate(313.872915, 33.377129)"><g><path d="M 3.625 -18.671875 C 4.289062 -19.484375 5.117188 -20.054688 6.109375 -20.390625 C 7.097656 -20.722656 8.097656 -20.859375 9.109375 -20.796875 C 10.210938 -20.742188 11.285156 -20.503906 12.328125 -20.078125 C 13.378906 -19.660156 14.425781 -19.238281 15.46875 -18.8125 C 16.519531 -18.394531 17.597656 -18.128906 18.703125 -18.015625 C 19.515625 -17.953125 20.234375 -18.101562 20.859375 -18.46875 C 21.492188 -18.832031 21.8125 -19.453125 21.8125 -20.328125 L 21.8125 -32.703125 L 25.421875 -32.703125 L 25.421875 0 L 21.8125 0 L 21.8125 -18.234375 C 21.425781 -17.148438 20.78125 -16.351562 19.875 -15.84375 C 18.976562 -15.34375 18.007812 -15.078125 16.96875 -15.046875 C 15.882812 -15.015625 14.878906 -15.1875 13.953125 -15.5625 C 13.023438 -15.945312 12.140625 -16.390625 11.296875 -16.890625 C 10.453125 -17.398438 9.613281 -17.851562 8.78125 -18.25 C 7.957031 -18.644531 7.09375 -18.84375 6.1875 -18.84375 C 5.632812 -18.84375 5.066406 -18.707031 4.484375 -18.4375 C 3.910156 -18.175781 3.625 -17.710938 3.625 -17.046875 L 3.625 0 L 0 0 L 0 -32.703125 L 3.625 -32.703125 Z M 3.625 -18.671875 "/></g></g></g></svg>