<svg width="443" height="77" viewBox="0 0 443 77" fill="none" xmlns="http://www.w3.org/2000/svg">
<path d="M4.34001 10.005H4.02501C3.11501 10.005 2.24002 9.445 1.40001 8.325C0.560015 7.135 0.140015 6.085 0.140015 5.175C0.140015 4.475 0.455015 4.09 1.08501 4.02C4.51501 3.39 7.42001 2.865 9.80002 2.445C12.25 2.025 14.385 1.71 16.205 1.5C18.025 1.22 19.81 1.045 21.56 0.974999C23.38 0.835001 25.375 0.765002 27.545 0.765002C33.215 0.765002 37.765 1.64 41.195 3.39C44.625 5.07 47.11 7.24 48.65 9.9C50.19 12.56 50.96 15.325 50.96 18.195C50.96 21.905 49.945 25.16 47.915 27.96C45.955 30.76 43.435 33.035 40.355 34.785C37.275 36.465 34.09 37.62 30.8 38.25C29.82 38.46 28.56 38.635 27.02 38.775C25.55 38.845 24.115 38.95 22.715 39.09C22.225 39.09 21.735 39.125 21.245 39.195C20.825 39.195 20.405 39.195 19.985 39.195C21.665 40.735 23.59 42.695 25.76 45.075C28 47.385 30.345 49.87 32.795 52.53C35.315 55.19 37.835 57.78 40.355 60.3C42.875 62.82 45.255 65.06 47.495 67.02C48.755 68.14 50.155 69.225 51.695 70.275C53.305 71.325 54.6 72.025 55.58 72.375C56.7 72.795 57.645 73.285 58.415 73.845C59.255 74.335 59.675 74.79 59.675 75.21C59.675 75.84 58.695 76.155 56.735 76.155C54.705 76.155 52.64 75.84 50.54 75.21C48.44 74.65 46.445 73.6 44.555 72.06C42.175 70.17 39.69 67.93 37.1 65.34C34.51 62.68 31.92 59.95 29.33 57.15C26.81 54.28 24.395 51.585 22.085 49.065C19.845 46.545 17.885 44.48 16.205 42.87C15.435 42.1 14.315 41.365 12.845 40.665C11.445 39.965 10.57 39.475 10.22 39.195V62.925C10.22 65.305 10.255 67.65 10.325 69.96C10.465 72.2 10.535 73.915 10.535 75.105C10.535 75.805 9.97501 76.155 8.85501 76.155C7.94502 76.155 6.93002 75.875 5.81002 75.315C4.69002 74.825 4.13001 74.125 4.13001 73.215C4.13001 72.375 4.16501 70.94 4.23501 68.91C4.30501 66.88 4.34001 64.85 4.34001 62.82V10.005ZM14 34.575C14.56 34.645 15.12 34.68 15.68 34.68C16.31 34.68 16.94 34.68 17.57 34.68C22.47 34.68 26.565 34.225 29.855 33.315C33.145 32.405 35.805 31.25 37.835 29.85C39.865 28.45 41.37 27.015 42.35 25.545C43.4 24.005 44.1 22.605 44.45 21.345C44.8 20.085 44.975 19.175 44.975 18.615C44.975 14.625 43.33 11.545 40.04 9.375C36.75 7.205 32.515 6.12 27.335 6.12C24.535 6.12 21.56 6.26 18.41 6.54C15.26 6.82 12.53 7.345 10.22 8.115V36.57C10.57 35.8 11.06 35.275 11.69 34.995C12.32 34.715 12.985 34.575 13.685 34.575H14Z" fill="white"/>
<path d="M87.4754 44.235C85.9354 41.365 84.1504 38.285 82.1204 34.995C80.1604 31.635 78.1304 28.31 76.0304 25.02C73.9304 21.66 71.9354 18.545 70.0454 15.675C68.1554 12.805 66.5454 10.39 65.2154 8.43C63.8854 6.47 62.9754 5.21 62.4854 4.65C62.1354 4.3 61.9604 3.915 61.9604 3.495C61.9604 2.795 62.4504 2.305 63.4304 2.025C64.4104 1.675 65.3904 1.5 66.3704 1.5C67.6304 1.5 68.4004 1.71 68.6804 2.13C69.2404 3.04 69.8004 4.125 70.3604 5.385C70.9904 6.575 71.6204 7.66 72.2504 8.64C75.2604 13.26 78.3754 18.16 81.5954 23.34C84.8154 28.52 87.7904 33.595 90.5204 38.565C93.6004 33.455 96.6104 28.52 99.5504 23.76C102.56 18.93 105.675 13.96 108.895 8.85C109.805 7.45 110.61 6.19 111.31 5.07C112.01 3.88 112.64 2.76 113.2 1.71C113.62 1.01 114.39 0.660003 115.51 0.660003C116.49 0.660003 117.47 0.940002 118.45 1.5C119.5 2.06 120.025 2.62 120.025 3.18C120.025 3.25 119.955 3.425 119.815 3.705C118.275 5.595 116.385 8.115 114.145 11.265C111.975 14.415 109.665 17.915 107.215 21.765C104.765 25.545 102.35 29.395 99.9704 33.315C97.5904 37.235 95.4554 40.875 93.5654 44.235V63.765C93.5654 64.605 93.6004 65.76 93.6704 67.23C93.7404 68.7 93.7754 70.135 93.7754 71.535C93.8454 72.935 93.8804 74.055 93.8804 74.895C93.8804 75.595 93.2854 75.945 92.0954 75.945C91.1154 75.945 90.0654 75.665 88.9454 75.105C87.8254 74.615 87.2654 73.915 87.2654 73.005C87.2654 72.445 87.2654 71.605 87.2654 70.485C87.3354 69.295 87.3704 68.07 87.3704 66.81C87.4404 65.55 87.4754 64.5 87.4754 63.66V44.235Z" fill="white"/>
<path d="M143.974 7.38C146.494 5.21 149.294 3.495 152.374 2.235C155.454 0.975001 159.024 0.345001 163.084 0.345001C169.384 0.345001 174.774 1.92 179.254 5.07C183.804 8.22 187.269 12.56 189.649 18.09C192.099 23.55 193.324 29.815 193.324 36.885C193.324 42.275 192.624 47.385 191.224 52.215C189.894 56.975 187.829 61.21 185.029 64.92C182.229 68.56 178.659 71.43 174.319 73.53C169.979 75.63 164.869 76.68 158.989 76.68C151.499 76.68 145.339 75.07 140.509 71.85C135.679 68.63 132.109 64.255 129.799 58.725C127.489 53.125 126.334 46.755 126.334 39.615C126.334 35.345 126.859 31.215 127.909 27.225C129.029 23.235 130.394 19.665 132.004 16.515C133.614 13.365 135.259 10.88 136.939 9.06C138.619 7.17 140.054 6.225 141.244 6.225C141.804 6.225 142.329 6.33 142.819 6.54C143.309 6.75 143.694 7.03 143.974 7.38ZM158.149 71.01C163.609 71.01 168.194 70.065 171.904 68.175C175.614 66.215 178.589 63.59 180.829 60.3C183.069 56.94 184.679 53.195 185.659 49.065C186.709 44.865 187.234 40.525 187.234 36.045C187.234 32.405 186.744 28.8 185.764 25.23C184.854 21.66 183.384 18.405 181.354 15.465C179.394 12.455 176.839 10.075 173.689 8.325C170.609 6.505 166.864 5.595 162.454 5.595C159.374 5.595 156.084 6.295 152.584 7.695C149.154 9.095 145.899 11.23 142.819 14.1C139.739 16.9 137.219 20.4 135.259 24.6C133.299 28.8 132.319 33.735 132.319 39.405C132.319 45.005 133.159 50.22 134.839 55.05C136.519 59.88 139.249 63.765 143.029 66.705C146.879 69.575 151.919 71.01 158.149 71.01Z" fill="white"/>
<path d="M225.886 7.8H225.781C225.431 7.8 224.556 7.835 223.156 7.905C221.756 7.975 220.216 8.08 218.536 8.22C216.926 8.29 215.526 8.36 214.336 8.43C213.146 8.5 212.551 8.535 212.551 8.535C210.801 8.605 209.086 8.78 207.406 9.06C205.796 9.27 204.606 9.41 203.836 9.48H203.731C202.821 9.48 202.051 8.955 201.421 7.905C200.791 6.785 200.476 5.77 200.476 4.86C200.476 3.81 200.861 3.285 201.631 3.285C202.191 3.285 203.171 3.32 204.571 3.39C205.971 3.46 207.476 3.495 209.086 3.495C209.646 3.495 210.206 3.495 210.766 3.495C211.396 3.425 211.956 3.39 212.446 3.39L245.206 1.5C246.816 1.36 248.461 1.22 250.141 1.08C251.821 0.94 253.081 0.800002 253.921 0.660003H254.236C255.076 0.660003 255.776 1.185 256.336 2.235C256.966 3.285 257.281 4.3 257.281 5.28C257.281 6.33 256.896 6.855 256.126 6.855C255.426 6.855 254.271 6.82 252.661 6.75C251.051 6.61 249.406 6.54 247.726 6.54C247.306 6.54 246.886 6.575 246.466 6.645C246.046 6.645 245.661 6.645 245.311 6.645L231.976 7.38V63.87C231.976 66.04 232.011 68.14 232.081 70.17C232.221 72.2 232.291 73.81 232.291 75C232.291 75.35 232.116 75.595 231.766 75.735C231.416 75.945 230.996 76.05 230.506 76.05C229.526 76.05 228.476 75.77 227.356 75.21C226.236 74.72 225.676 74.02 225.676 73.11C225.676 72.27 225.711 70.975 225.781 69.225C225.851 67.405 225.886 65.585 225.886 63.765V7.8Z" fill="white"/>
<path d="M270.737 13.155C270.737 10.985 270.666 8.885 270.526 6.855C270.456 4.825 270.422 3.215 270.422 2.025C270.422 1.325 271.017 0.974999 272.207 0.974999C273.187 0.974999 274.237 1.255 275.357 1.815C276.477 2.305 277.036 3.005 277.036 3.915C277.036 4.755 277.001 6.085 276.931 7.905C276.861 9.655 276.827 11.44 276.827 13.26V33.42C278.717 31.95 281.201 29.92 284.281 27.33C287.361 24.67 290.651 21.8 294.151 18.72C297.721 15.57 301.117 12.49 304.337 9.48C307.627 6.4 310.391 3.67 312.632 1.29C312.842 1.01 313.227 0.870001 313.786 0.870001C314.766 0.870001 315.887 1.255 317.147 2.025C318.407 2.795 319.036 3.53 319.036 4.23C319.036 4.51 318.931 4.755 318.721 4.965C317.671 5.875 316.447 6.89 315.047 8.01C313.647 9.13 312.072 10.495 310.322 12.105C307.172 14.905 303.461 18.16 299.191 21.87C294.991 25.51 290.581 29.22 285.961 33C287.431 34.75 289.391 36.99 291.841 39.72C294.361 42.38 297.091 45.285 300.031 48.435C303.041 51.585 306.051 54.735 309.061 57.885C312.071 60.965 314.906 63.8 317.566 66.39C320.226 68.91 322.431 70.905 324.181 72.375C324.461 72.585 324.602 72.865 324.602 73.215C324.602 73.845 324.042 74.44 322.922 75C321.872 75.56 320.717 75.84 319.457 75.84C318.057 75.84 317.007 75.385 316.307 74.475C315.887 73.915 315.396 73.285 314.836 72.585C314.276 71.885 313.542 71.08 312.632 70.17C310.672 68.14 308.396 65.76 305.806 63.03C303.216 60.23 300.452 57.29 297.512 54.21C294.642 51.06 291.807 47.98 289.007 44.97C286.277 41.89 283.792 39.055 281.552 36.465C280.782 37.095 279.977 37.725 279.137 38.355C278.367 38.985 277.597 39.58 276.827 40.14V63.345C276.827 65.725 276.861 68 276.931 70.17C277.071 72.27 277.142 73.915 277.142 75.105C277.142 75.805 276.547 76.155 275.357 76.155C274.377 76.155 273.327 75.875 272.207 75.315C271.087 74.825 270.526 74.125 270.526 73.215C270.526 72.375 270.562 71.01 270.632 69.12C270.701 67.23 270.737 65.27 270.737 63.24V13.155Z" fill="white"/>
<path d="M338.134 13.155C338.134 10.985 338.064 8.885 337.924 6.855C337.854 4.825 337.819 3.215 337.819 2.025C337.819 1.675 337.994 1.43 338.344 1.29C338.694 1.08 339.114 0.974999 339.604 0.974999C340.654 0.974999 341.739 1.255 342.859 1.815C344.049 2.305 344.644 3.005 344.644 3.915C344.644 4.755 344.609 6.085 344.539 7.905C344.469 9.655 344.434 11.44 344.434 13.26V63.87C344.434 66.04 344.469 68.14 344.539 70.17C344.679 72.2 344.749 73.81 344.749 75C344.749 75.35 344.574 75.595 344.224 75.735C343.874 75.945 343.454 76.05 342.964 76.05C341.914 76.05 340.794 75.77 339.604 75.21C338.484 74.72 337.924 74.02 337.924 73.11C337.924 72.27 337.959 70.975 338.029 69.225C338.099 67.405 338.134 65.585 338.134 63.765V13.155Z" fill="white"/>
<path d="M433.969 9.06C435.159 19.98 436.174 29.115 437.014 36.465C437.924 43.745 438.694 49.625 439.324 54.105C439.954 58.585 440.479 62.085 440.899 64.605C441.319 67.055 441.669 68.91 441.949 70.17C442.229 71.36 442.509 72.34 442.789 73.11C442.789 73.18 442.789 73.25 442.789 73.32C442.859 73.39 442.894 73.46 442.894 73.53C442.894 74.16 442.439 74.65 441.529 75C440.619 75.35 439.674 75.525 438.694 75.525C437.854 75.525 437.119 75.385 436.489 75.105C435.859 74.825 435.509 74.405 435.439 73.845C435.369 72.375 435.299 71.115 435.229 70.065C435.159 68.945 435.054 67.615 434.914 66.075C434.564 62.855 434.109 58.935 433.549 54.315C432.989 49.625 432.359 44.62 431.659 39.3C431.029 33.98 430.399 28.73 429.769 23.55C429.209 18.37 428.684 13.68 428.194 9.48C427.984 9.83 427.424 11.02 426.514 13.05C425.604 15.01 424.449 17.495 423.049 20.505C421.649 23.445 420.144 26.7 418.534 30.27C416.924 33.77 415.314 37.305 413.704 40.875C412.094 44.375 410.624 47.665 409.294 50.745C408.034 53.755 406.984 56.275 406.144 58.305C405.374 60.335 404.989 61.56 404.989 61.98C404.919 62.82 404.394 63.52 403.414 64.08C402.434 64.64 401.454 64.92 400.474 64.92C399.844 64.92 399.249 64.78 398.689 64.5C398.199 64.22 397.884 63.835 397.744 63.345C397.394 62.225 396.974 61.035 396.484 59.775C396.064 58.515 395.749 57.675 395.539 57.255C394.489 54.735 393.159 51.585 391.549 47.805C389.939 44.025 388.224 39.965 386.404 35.625C384.584 31.215 382.799 26.875 381.049 22.605C379.299 18.265 377.759 14.31 376.429 10.74C375.379 19.63 374.469 27.225 373.699 33.525C372.929 39.755 372.299 45.005 371.809 49.275C371.319 53.545 370.899 57.045 370.549 59.775C370.269 62.435 370.024 64.605 369.814 66.285C369.674 67.895 369.534 69.26 369.394 70.38C369.324 71.5 369.254 72.62 369.184 73.74C369.114 74.37 368.624 74.825 367.714 75.105C366.804 75.455 365.859 75.63 364.879 75.63C364.109 75.63 363.444 75.525 362.884 75.315C362.324 75.105 362.044 74.79 362.044 74.37V74.055C362.604 72.095 363.164 69.47 363.724 66.18C364.284 62.82 364.844 59.11 365.404 55.05C366.034 50.92 366.594 46.685 367.084 42.345C367.644 37.935 368.134 33.7 368.554 29.64C369.044 25.58 369.464 21.905 369.814 18.615C370.164 15.325 370.409 12.735 370.549 10.845C370.759 8.885 370.864 7.905 370.864 7.905C370.864 7.345 370.829 6.89 370.759 6.54C370.759 6.12 370.759 5.735 370.759 5.385C370.759 5.245 370.759 5.07 370.759 4.86C370.759 4.65 370.794 4.475 370.864 4.335C371.004 3.565 371.634 2.9 372.754 2.34C373.944 1.71 375.134 1.395 376.324 1.395C377.304 1.395 377.969 1.605 378.319 2.025C378.669 2.375 379.194 3.39 379.894 5.07C381.574 9.27 383.359 13.715 385.249 18.405C387.139 23.025 389.029 27.645 390.919 32.265C392.879 36.885 394.699 41.26 396.379 45.39C398.129 49.45 399.704 53.02 401.104 56.1C403.414 50.71 405.899 45.005 408.559 38.985C411.219 32.895 413.914 26.875 416.644 20.925C419.374 14.975 421.964 9.48 424.414 4.44C424.834 3.53 425.254 2.655 425.674 1.815C426.094 0.905 426.864 0.45 427.984 0.45C428.684 0.45 429.524 0.659999 430.504 1.08C431.554 1.43 432.464 1.885 433.234 2.445C434.074 2.935 434.494 3.425 434.494 3.915C434.494 4.615 434.389 5.315 434.179 6.015C434.039 6.645 433.969 7.415 433.969 8.325V9.06Z" fill="white"/>
</svg>
