<svg xmlns="http://www.w3.org/2000/svg" xmlns:xlink="http://www.w3.org/1999/xlink" width="480" zoomAndPan="magnify" viewBox="0 0 360 44.999999" height="60" preserveAspectRatio="xMidYMid meet" version="1.0"><defs><g/><clipPath id="4e5ae978df"><rect x="0" width="359" y="0" height="45"/></clipPath></defs><g transform="matrix(1, 0, 0, 1, 1, 0)"><g clip-path="url(#4e5ae978df)"><g fill="#ffffff" fill-opacity="1"><g transform="translate(1.110032, 40.333685)"><g><path d="M 3.234375 0 L 3.234375 -37.046875 L 20.15625 -37.046875 C 22.664062 -37.046875 24.953125 -36.5 27.015625 -35.40625 C 29.078125 -34.3125 30.71875 -32.789062 31.9375 -30.84375 C 33.15625 -28.90625 33.765625 -26.664062 33.765625 -24.125 C 33.765625 -21.769531 33.195312 -19.644531 32.0625 -17.75 C 30.9375 -15.863281 29.457031 -14.335938 27.625 -13.171875 L 30.59375 -8.15625 C 30.769531 -7.90625 30.972656 -7.707031 31.203125 -7.5625 C 31.429688 -7.425781 31.738281 -7.359375 32.125 -7.359375 L 35.40625 -7.359375 L 35.40625 0 L 30.21875 0 C 28.632812 0 27.1875 -0.378906 25.875 -1.140625 C 24.570312 -1.898438 23.550781 -2.894531 22.8125 -4.125 L 18.84375 -11.171875 C 18.59375 -11.171875 18.332031 -11.171875 18.0625 -11.171875 C 17.800781 -11.171875 17.53125 -11.171875 17.25 -11.171875 L 12.125 -11.171875 L 12.125 0 Z M 12.125 -18.515625 L 19.15625 -18.515625 C 20.175781 -18.515625 21.128906 -18.734375 22.015625 -19.171875 C 22.898438 -19.617188 23.597656 -20.253906 24.109375 -21.078125 C 24.617188 -21.910156 24.875 -22.910156 24.875 -24.078125 C 24.875 -25.242188 24.609375 -26.238281 24.078125 -27.0625 C 23.546875 -27.894531 22.847656 -28.53125 21.984375 -28.96875 C 21.117188 -29.414062 20.175781 -29.640625 19.15625 -29.640625 L 12.125 -29.640625 Z M 12.125 -18.515625 "/></g></g></g><g fill="#ffffff" fill-opacity="1"><g transform="translate(32.059126, 40.333685)"><g><path d="M 14.234375 0 L 14.234375 -10.109375 C 11.972656 -10.640625 10.003906 -11.566406 8.328125 -12.890625 C 6.660156 -14.210938 5.363281 -15.882812 4.4375 -17.90625 C 3.519531 -19.9375 3.0625 -22.273438 3.0625 -24.921875 L 3.0625 -37.046875 L 11.75 -37.046875 L 11.75 -24.453125 C 11.75 -23.109375 12.03125 -21.878906 12.59375 -20.765625 C 13.15625 -19.660156 13.957031 -18.78125 15 -18.125 C 16.039062 -17.46875 17.269531 -17.140625 18.6875 -17.140625 C 20.09375 -17.140625 21.316406 -17.46875 22.359375 -18.125 C 23.398438 -18.78125 24.203125 -19.660156 24.765625 -20.765625 C 25.328125 -21.878906 25.609375 -23.109375 25.609375 -24.453125 L 25.609375 -37.046875 L 34.296875 -37.046875 L 34.296875 -24.921875 C 34.296875 -22.273438 33.835938 -19.9375 32.921875 -17.90625 C 32.003906 -15.882812 30.695312 -14.203125 29 -12.859375 C 27.300781 -11.515625 25.328125 -10.597656 23.078125 -10.109375 L 23.078125 0 Z M 14.234375 0 "/></g></g></g><g fill="#ffffff" fill-opacity="1"><g transform="translate(64.172165, 40.333685)"><g><path d="M 21.171875 0.6875 C 18.203125 0.6875 15.519531 0.191406 13.125 -0.796875 C 10.726562 -1.785156 8.664062 -3.160156 6.9375 -4.921875 C 5.207031 -6.679688 3.875 -8.722656 2.9375 -11.046875 C 2 -13.378906 1.53125 -15.890625 1.53125 -18.578125 C 1.53125 -21.253906 2 -23.753906 2.9375 -26.078125 C 3.875 -28.410156 5.195312 -30.453125 6.90625 -32.203125 C 8.613281 -33.953125 10.675781 -35.3125 13.09375 -36.28125 C 15.507812 -37.25 18.203125 -37.734375 21.171875 -37.734375 C 24.097656 -37.734375 26.769531 -37.25 29.1875 -36.28125 C 31.601562 -35.3125 33.664062 -33.953125 35.375 -32.203125 C 37.082031 -30.453125 38.410156 -28.40625 39.359375 -26.0625 C 40.316406 -23.71875 40.796875 -21.222656 40.796875 -18.578125 C 40.796875 -15.890625 40.316406 -13.378906 39.359375 -11.046875 C 38.410156 -8.722656 37.082031 -6.679688 35.375 -4.921875 C 33.664062 -3.160156 31.601562 -1.785156 29.1875 -0.796875 C 26.769531 0.191406 24.097656 0.6875 21.171875 0.6875 Z M 21.171875 -6.875 C 22.722656 -6.875 24.160156 -7.164062 25.484375 -7.75 C 26.804688 -8.332031 27.941406 -9.148438 28.890625 -10.203125 C 29.847656 -11.265625 30.585938 -12.507812 31.109375 -13.9375 C 31.640625 -15.375 31.90625 -16.921875 31.90625 -18.578125 C 31.90625 -20.234375 31.640625 -21.765625 31.109375 -23.171875 C 30.585938 -24.585938 29.847656 -25.820312 28.890625 -26.875 C 27.941406 -27.9375 26.804688 -28.757812 25.484375 -29.34375 C 24.160156 -29.925781 22.722656 -30.21875 21.171875 -30.21875 C 19.578125 -30.21875 18.128906 -29.925781 16.828125 -29.34375 C 15.523438 -28.757812 14.382812 -27.9375 13.40625 -26.875 C 12.4375 -25.820312 11.695312 -24.582031 11.1875 -23.15625 C 10.675781 -21.726562 10.421875 -20.203125 10.421875 -18.578125 C 10.421875 -16.921875 10.675781 -15.375 11.1875 -13.9375 C 11.695312 -12.507812 12.4375 -11.265625 13.40625 -10.203125 C 14.382812 -9.148438 15.523438 -8.332031 16.828125 -7.75 C 18.128906 -7.164062 19.578125 -6.875 21.171875 -6.875 Z M 21.171875 -6.875 "/></g></g></g><g fill="#ffffff" fill-opacity="1"><g transform="translate(101.205532, 40.333685)"><g><path d="M 22.28125 0 C 20.019531 0 18.035156 -0.5 16.328125 -1.5 C 14.617188 -2.507812 13.273438 -3.859375 12.296875 -5.546875 C 11.328125 -7.242188 10.84375 -9.132812 10.84375 -11.21875 L 10.84375 -29.640625 L 0.796875 -29.640625 L 0.796875 -37.046875 L 29.734375 -37.046875 L 29.734375 -29.640625 L 19.734375 -29.640625 L 19.734375 -10.421875 C 19.734375 -9.609375 20.015625 -8.898438 20.578125 -8.296875 C 21.148438 -7.703125 21.859375 -7.40625 22.703125 -7.40625 L 25.609375 -7.40625 L 25.609375 0 Z M 22.28125 0 "/></g></g></g><g fill="#ffffff" fill-opacity="1"><g transform="translate(126.4936, 40.333685)"><g><path d="M 3.234375 0 L 3.234375 -37.046875 L 12.125 -37.046875 L 12.125 -22.0625 L 18.265625 -22.0625 C 19.285156 -22.0625 20.226562 -22.273438 21.09375 -22.703125 C 21.957031 -23.128906 22.632812 -23.765625 23.125 -24.609375 C 23.625 -25.453125 23.875 -26.441406 23.875 -27.578125 L 23.875 -37.046875 L 32.765625 -37.046875 L 32.765625 -27.515625 C 32.765625 -25.148438 32.195312 -23.03125 31.0625 -21.15625 C 29.9375 -19.289062 28.457031 -17.796875 26.625 -16.671875 L 30.640625 -8.203125 C 30.742188 -7.921875 30.925781 -7.707031 31.1875 -7.5625 C 31.457031 -7.425781 31.753906 -7.359375 32.078125 -7.359375 L 35.40625 -7.359375 L 35.40625 0 L 30.265625 0 C 28.328125 0 26.757812 -0.367188 25.5625 -1.109375 C 24.363281 -1.847656 23.445312 -2.875 22.8125 -4.1875 L 17.78125 -14.65625 C 17.5 -14.65625 17.234375 -14.65625 16.984375 -14.65625 C 16.742188 -14.65625 16.476562 -14.65625 16.1875 -14.65625 L 12.125 -14.65625 L 12.125 0 Z M 3.234375 0 "/></g></g></g><g fill="#ffffff" fill-opacity="1"><g transform="translate(157.07234, 40.333685)"><g><path d="M 2.375 0 L 2.375 -7.40625 L 8.78125 -7.40625 L 8.78125 -29.640625 L 2.375 -29.640625 L 2.375 -37.046875 L 24.03125 -37.046875 L 24.03125 -29.640625 L 17.625 -29.640625 L 17.625 -7.40625 L 24.03125 -7.40625 L 24.03125 0 Z M 2.375 0 "/></g></g></g><g fill="#ffffff" fill-opacity="1"><g transform="translate(178.233689, 40.333685)"><g><path d="M 29.3125 0.640625 C 27.164062 0.640625 25.203125 0.164062 23.421875 -0.78125 C 21.640625 -1.738281 20.226562 -3.0625 19.1875 -4.75 C 18.144531 -6.445312 17.625 -8.460938 17.625 -10.796875 L 17.625 -26.9375 C 17.625 -27.5 17.484375 -28.007812 17.203125 -28.46875 C 16.921875 -28.925781 16.550781 -29.296875 16.09375 -29.578125 C 15.632812 -29.859375 15.117188 -30 14.546875 -30 C 13.984375 -30 13.472656 -29.859375 13.015625 -29.578125 C 12.554688 -29.296875 12.191406 -28.925781 11.921875 -28.46875 C 11.660156 -28.007812 11.53125 -27.5 11.53125 -26.9375 L 11.53125 0 L 2.859375 0 L 2.859375 -26.296875 C 2.859375 -28.523438 3.359375 -30.484375 4.359375 -32.171875 C 5.367188 -33.867188 6.765625 -35.210938 8.546875 -36.203125 C 10.328125 -37.191406 12.328125 -37.6875 14.546875 -37.6875 C 16.804688 -37.6875 18.816406 -37.191406 20.578125 -36.203125 C 22.347656 -35.210938 23.742188 -33.867188 24.765625 -32.171875 C 25.785156 -30.484375 26.296875 -28.523438 26.296875 -26.296875 L 26.296875 -10.15625 C 26.296875 -9.5625 26.4375 -9.035156 26.71875 -8.578125 C 27.007812 -8.117188 27.375 -7.753906 27.8125 -7.484375 C 28.25 -7.222656 28.734375 -7.09375 29.265625 -7.09375 C 29.828125 -7.09375 30.347656 -7.222656 30.828125 -7.484375 C 31.304688 -7.753906 31.6875 -8.117188 31.96875 -8.578125 C 32.25 -9.035156 32.390625 -9.5625 32.390625 -10.15625 L 32.390625 -26.296875 C 32.390625 -28.523438 32.898438 -30.484375 33.921875 -32.171875 C 34.941406 -33.867188 36.34375 -35.210938 38.125 -36.203125 C 39.90625 -37.191406 41.890625 -37.6875 44.078125 -37.6875 C 46.335938 -37.6875 48.335938 -37.191406 50.078125 -36.203125 C 51.828125 -35.210938 53.210938 -33.867188 54.234375 -32.171875 C 55.265625 -30.484375 55.78125 -28.523438 55.78125 -26.296875 L 55.78125 0 L 47.09375 0 L 47.09375 -26.984375 C 47.09375 -27.554688 46.960938 -28.0625 46.703125 -28.5 C 46.441406 -28.9375 46.082031 -29.296875 45.625 -29.578125 C 45.164062 -29.859375 44.648438 -30 44.078125 -30 C 43.554688 -30 43.054688 -29.859375 42.578125 -29.578125 C 42.097656 -29.296875 41.71875 -28.9375 41.4375 -28.5 C 41.15625 -28.0625 41.015625 -27.554688 41.015625 -26.984375 L 41.015625 -10.796875 C 41.015625 -8.460938 40.484375 -6.445312 39.421875 -4.75 C 38.367188 -3.0625 36.957031 -1.738281 35.1875 -0.78125 C 33.425781 0.164062 31.46875 0.640625 29.3125 0.640625 Z M 29.3125 0.640625 "/></g></g></g><g fill="#ffffff" fill-opacity="1"><g transform="translate(231.615232, 40.333685)"><g><path d="M 7.09375 0.640625 C 5.675781 0.640625 4.460938 0.140625 3.453125 -0.859375 C 2.453125 -1.867188 1.953125 -3.066406 1.953125 -4.453125 C 1.953125 -5.859375 2.453125 -7.0625 3.453125 -8.0625 C 4.460938 -9.070312 5.675781 -9.578125 7.09375 -9.578125 C 8.46875 -9.578125 9.65625 -9.070312 10.65625 -8.0625 C 11.664062 -7.0625 12.171875 -5.859375 12.171875 -4.453125 C 12.171875 -3.523438 11.941406 -2.671875 11.484375 -1.890625 C 11.023438 -1.117188 10.414062 -0.503906 9.65625 -0.046875 C 8.894531 0.410156 8.039062 0.640625 7.09375 0.640625 Z M 7.09375 0.640625 "/></g></g></g><g fill="#ffffff" fill-opacity="1"><g transform="translate(240.502211, 40.333685)"><g><path d="M 21.21875 0 C 18.1875 0 15.453125 -0.46875 13.015625 -1.40625 C 10.578125 -2.34375 8.507812 -3.65625 6.8125 -5.34375 C 5.125 -7.039062 3.820312 -9.007812 2.90625 -11.25 C 1.988281 -13.488281 1.53125 -15.910156 1.53125 -18.515625 C 1.53125 -21.128906 1.988281 -23.554688 2.90625 -25.796875 C 3.820312 -28.035156 5.132812 -30 6.84375 -31.6875 C 8.5625 -33.382812 10.628906 -34.703125 13.046875 -35.640625 C 15.460938 -36.578125 18.1875 -37.046875 21.21875 -37.046875 L 26.9375 -37.046875 L 26.9375 -29.640625 L 21.4375 -29.640625 C 19.78125 -29.640625 18.269531 -29.351562 16.90625 -28.78125 C 15.550781 -28.21875 14.382812 -27.429688 13.40625 -26.421875 C 12.4375 -25.421875 11.695312 -24.25 11.1875 -22.90625 C 10.675781 -21.570312 10.421875 -20.109375 10.421875 -18.515625 C 10.421875 -16.929688 10.675781 -15.46875 11.1875 -14.125 C 11.695312 -12.789062 12.4375 -11.617188 13.40625 -10.609375 C 14.382812 -9.609375 15.550781 -8.820312 16.90625 -8.25 C 18.269531 -7.6875 19.78125 -7.40625 21.4375 -7.40625 L 26.9375 -7.40625 L 26.9375 0 Z M 21.21875 0 "/></g></g></g><g fill="#ffffff" fill-opacity="1"><g transform="translate(263.991471, 40.333685)"><g><path d="M 21.171875 0.6875 C 18.203125 0.6875 15.519531 0.191406 13.125 -0.796875 C 10.726562 -1.785156 8.664062 -3.160156 6.9375 -4.921875 C 5.207031 -6.679688 3.875 -8.722656 2.9375 -11.046875 C 2 -13.378906 1.53125 -15.890625 1.53125 -18.578125 C 1.53125 -21.253906 2 -23.753906 2.9375 -26.078125 C 3.875 -28.410156 5.195312 -30.453125 6.90625 -32.203125 C 8.613281 -33.953125 10.675781 -35.3125 13.09375 -36.28125 C 15.507812 -37.25 18.203125 -37.734375 21.171875 -37.734375 C 24.097656 -37.734375 26.769531 -37.25 29.1875 -36.28125 C 31.601562 -35.3125 33.664062 -33.953125 35.375 -32.203125 C 37.082031 -30.453125 38.410156 -28.40625 39.359375 -26.0625 C 40.316406 -23.71875 40.796875 -21.222656 40.796875 -18.578125 C 40.796875 -15.890625 40.316406 -13.378906 39.359375 -11.046875 C 38.410156 -8.722656 37.082031 -6.679688 35.375 -4.921875 C 33.664062 -3.160156 31.601562 -1.785156 29.1875 -0.796875 C 26.769531 0.191406 24.097656 0.6875 21.171875 0.6875 Z M 21.171875 -6.875 C 22.722656 -6.875 24.160156 -7.164062 25.484375 -7.75 C 26.804688 -8.332031 27.941406 -9.148438 28.890625 -10.203125 C 29.847656 -11.265625 30.585938 -12.507812 31.109375 -13.9375 C 31.640625 -15.375 31.90625 -16.921875 31.90625 -18.578125 C 31.90625 -20.234375 31.640625 -21.765625 31.109375 -23.171875 C 30.585938 -24.585938 29.847656 -25.820312 28.890625 -26.875 C 27.941406 -27.9375 26.804688 -28.757812 25.484375 -29.34375 C 24.160156 -29.925781 22.722656 -30.21875 21.171875 -30.21875 C 19.578125 -30.21875 18.128906 -29.925781 16.828125 -29.34375 C 15.523438 -28.757812 14.382812 -27.9375 13.40625 -26.875 C 12.4375 -25.820312 11.695312 -24.582031 11.1875 -23.15625 C 10.675781 -21.726562 10.421875 -20.203125 10.421875 -18.578125 C 10.421875 -16.921875 10.675781 -15.375 11.1875 -13.9375 C 11.695312 -12.507812 12.4375 -11.265625 13.40625 -10.203125 C 14.382812 -9.148438 15.523438 -8.332031 16.828125 -7.75 C 18.128906 -7.164062 19.578125 -6.875 21.171875 -6.875 Z M 21.171875 -6.875 "/></g></g></g><g fill="#ffffff" fill-opacity="1"><g transform="translate(301.024828, 40.333685)"><g><path d="M 29.3125 0.640625 C 27.164062 0.640625 25.203125 0.164062 23.421875 -0.78125 C 21.640625 -1.738281 20.226562 -3.0625 19.1875 -4.75 C 18.144531 -6.445312 17.625 -8.460938 17.625 -10.796875 L 17.625 -26.9375 C 17.625 -27.5 17.484375 -28.007812 17.203125 -28.46875 C 16.921875 -28.925781 16.550781 -29.296875 16.09375 -29.578125 C 15.632812 -29.859375 15.117188 -30 14.546875 -30 C 13.984375 -30 13.472656 -29.859375 13.015625 -29.578125 C 12.554688 -29.296875 12.191406 -28.925781 11.921875 -28.46875 C 11.660156 -28.007812 11.53125 -27.5 11.53125 -26.9375 L 11.53125 0 L 2.859375 0 L 2.859375 -26.296875 C 2.859375 -28.523438 3.359375 -30.484375 4.359375 -32.171875 C 5.367188 -33.867188 6.765625 -35.210938 8.546875 -36.203125 C 10.328125 -37.191406 12.328125 -37.6875 14.546875 -37.6875 C 16.804688 -37.6875 18.816406 -37.191406 20.578125 -36.203125 C 22.347656 -35.210938 23.742188 -33.867188 24.765625 -32.171875 C 25.785156 -30.484375 26.296875 -28.523438 26.296875 -26.296875 L 26.296875 -10.15625 C 26.296875 -9.5625 26.4375 -9.035156 26.71875 -8.578125 C 27.007812 -8.117188 27.375 -7.753906 27.8125 -7.484375 C 28.25 -7.222656 28.734375 -7.09375 29.265625 -7.09375 C 29.828125 -7.09375 30.347656 -7.222656 30.828125 -7.484375 C 31.304688 -7.753906 31.6875 -8.117188 31.96875 -8.578125 C 32.25 -9.035156 32.390625 -9.5625 32.390625 -10.15625 L 32.390625 -26.296875 C 32.390625 -28.523438 32.898438 -30.484375 33.921875 -32.171875 C 34.941406 -33.867188 36.34375 -35.210938 38.125 -36.203125 C 39.90625 -37.191406 41.890625 -37.6875 44.078125 -37.6875 C 46.335938 -37.6875 48.335938 -37.191406 50.078125 -36.203125 C 51.828125 -35.210938 53.210938 -33.867188 54.234375 -32.171875 C 55.265625 -30.484375 55.78125 -28.523438 55.78125 -26.296875 L 55.78125 0 L 47.09375 0 L 47.09375 -26.984375 C 47.09375 -27.554688 46.960938 -28.0625 46.703125 -28.5 C 46.441406 -28.9375 46.082031 -29.296875 45.625 -29.578125 C 45.164062 -29.859375 44.648438 -30 44.078125 -30 C 43.554688 -30 43.054688 -29.859375 42.578125 -29.578125 C 42.097656 -29.296875 41.71875 -28.9375 41.4375 -28.5 C 41.15625 -28.0625 41.015625 -27.554688 41.015625 -26.984375 L 41.015625 -10.796875 C 41.015625 -8.460938 40.484375 -6.445312 39.421875 -4.75 C 38.367188 -3.0625 36.957031 -1.738281 35.1875 -0.78125 C 33.425781 0.164062 31.46875 0.640625 29.3125 0.640625 Z M 29.3125 0.640625 "/></g></g></g></g></g></svg>